/* XPM */
static const char * candy_xpm[] = {
"32 32 152 2",
"  	c None",
". 	c #FC105C",
"+ 	c #F00F55",
"@ 	c #E10E4B",
"# 	c #FD7EB8",
"$ 	c #E83E6F",
"% 	c #E10F4C",
"& 	c #F873AA",
"* 	c #FD78B2",
"= 	c #FC4F87",
"- 	c #FC1B60",
"; 	c #E1114D",
"> 	c #E94677",
", 	c #F05D90",
"' 	c #EF598C",
") 	c #FD77B1",
"! 	c #FC4C84",
"~ 	c #F00F54",
"{ 	c #FB79B2",
"] 	c #E10D4B",
"^ 	c #E6396A",
"/ 	c #FA77B0",
"( 	c #E1154E",
"_ 	c #E32559",
": 	c #FC7BB4",
"< 	c #FD6199",
"[ 	c #F01155",
"} 	c #EA4577",
"| 	c #E32459",
"1 	c #E21951",
"2 	c #FC7CB6",
"3 	c #EC5082",
"4 	c #EE5689",
"5 	c #FC70A9",
"6 	c #F14A7D",
"7 	c #E73B6C",
"8 	c #EA4879",
"9 	c #F66DA4",
"0 	c #FA78B0",
"a 	c #E32156",
"b 	c #E1124D",
"c 	c #FC70A8",
"d 	c #FC6097",
"e 	c #EA386B",
"f 	c #E1104C",
"g 	c #F36499",
"h 	c #F4679C",
"i 	c #E32357",
"j 	c #F4659B",
"k 	c #F95A90",
"l 	c #E20E4B",
"m 	c #E21A51",
"n 	c #E31F55",
"o 	c #E32055",
"p 	c #FA77AF",
"q 	c #EF5A8D",
"r 	c #CB1142",
"s 	c #B61D42",
"t 	c #EA5284",
"u 	c #E73C6D",
"v 	c #FA76AE",
"w 	c #EF598D",
"x 	c #EB4B7D",
"y 	c #DA4572",
"z 	c #B11338",
"A 	c #B11439",
"B 	c #D4406C",
"C 	c #F85D92",
"D 	c #F7578C",
"E 	c #F26397",
"F 	c #E52E60",
"G 	c #E64F80",
"H 	c #B71E43",
"I 	c #B61C41",
"J 	c #D5416D",
"K 	c #EB5386",
"L 	c #F76FA5",
"M 	c #F76EA5",
"N 	c #E1144E",
"O 	c #E21750",
"P 	c #EF5F93",
"Q 	c #F75C91",
"R 	c #D43F6B",
"S 	c #B3173C",
"T 	c #B3143A",
"U 	c #E63567",
"V 	c #F66EA5",
"W 	c #CB1243",
"X 	c #E14B7B",
"Y 	c #DF4978",
"Z 	c #CA365F",
"` 	c #E63769",
" .	c #E34C7C",
"..	c #B3163B",
"+.	c #CB3760",
"@.	c #F3598E",
"#.	c #FD6FA7",
"$.	c #E94273",
"%.	c #ED5486",
"&.	c #ED5588",
"*.	c #BD274C",
"=.	c #B2153A",
"-.	c #CD3963",
";.	c #E85182",
">.	c #F85D93",
",.	c #FC6198",
"'.	c #FC3E78",
").	c #E4275A",
"!.	c #E65283",
"~.	c #FA5E94",
"{.	c #DB4674",
"].	c #B81F44",
"^.	c #BC254A",
"/.	c #C42F57",
"(.	c #FD6FA8",
"_.	c #F770A7",
":.	c #CD1D4B",
"<.	c #D33F6A",
"[.	c #FA5E95",
"}.	c #CF3B65",
"|.	c #BD264C",
"1.	c #B21439",
"2.	c #FC3974",
"3.	c #FD7CB6",
"4.	c #EE5588",
"5.	c #B92146",
"6.	c #BF2950",
"7.	c #E95183",
"8.	c #FB5F95",
"9.	c #F55B90",
"0.	c #C9355D",
"a.	c #C12B52",
"b.	c #DD4876",
"c.	c #F0578A",
"d.	c #FB5F96",
"e.	c #EE0F54",
"f.	c #EB3C6F",
"g.	c #E75081",
"h.	c #C22D54",
"i.	c #BA2046",
"j.	c #C02950",
"k.	c #EE0F53",
"l.	c #E6295D",
"m.	c #F55388",
"n.	c #EF568A",
"o.	c #DA4573",
"p.	c #C8335C",
"q.	c #BA2247",
"r.	c #B4153B",
"s.	c #E62A5E",
"t.	c #F7588D",
"u.	c #FC6098",
"                                          .                     ",
"                                        . . . .                 ",
"                                        . . . . .               ",
"                                        . . . . .               ",
"                                      . . . . . . . .           ",
"                                      . . . . . . . + @         ",
"                          # # $ % & * = - . . . . + @ @         ",
"                      ; > # # , @ ' # # ) ! . . ~ @ @ @ @ @     ",
"                  # { ] ^ # # / ( _ : # # # < [ @ @ @ @ @ @ @   ",
"                } # # | 1 2 # # 3 @ 4 # # # 5 6 @ @ @ @ @ @ @   ",
"                7 # # 8 @ 9 # # 0 a b 9 # c d d e @ @ @ @ @ @ @ ",
"              f ^ # # g @ 3 # # # h @ i j d d d k b @ @ @ @ l   ",
"              m n # # : o 1 p # # # q r s t d d d e @ l         ",
"            # u @ v # # w @ x # # # 5 y z A B C d D             ",
"            # 4 @ E # # : F @ g # 5 d d G H z I J K             ",
"            # L @ $ # # # M N O P d d d d Q R S z T             ",
"            # # U @ V # # # g W S X d d d d d Q Y Z             ",
"            # # h @ ` 2 # # 5  ...z +.@.d d d d d d             ",
"            #.# # $.@ %.# c d d &.*.z =.-.;.>.d d ,.            ",
"        . . '.# # / ).@ !.d d d d ~.{.].z z z ^./.              ",
"  . . . . . . (.# # _.:.z <.[.d d d d [.G }.|.z 1.              ",
". . . . . . . 2.3.# 5 4.5.z 6.7.d d d d d d d 8.                ",
"  . . . . . . . = c d d 9.0.z z a.b.c.d.d d d                   ",
"  . . . . . . . e.f.d.d d d g.h.z z z =.i.j.                    ",
"    . . . . . k.@ @ l.m.d d d d n.o.p.q.r.                      ",
"        . . k.@ @ @ @ @ s.t.d u.u.d ,.                          ",
"        . k.@ @ @ @ @ @ @                                       ",
"          @ @ @ @ @ @ @ l                                       ",
"              @ @ @ @ @                                         ",
"              @ @ @ @ @                                         ",
"                @ @ @ @                                         ",
"                    @                                           "};
