/* XPM */
static const char * cursor_xpm[] = {
"32 32 238 2",
"  	c None",
". 	c #000000",
"+ 	c #151515",
"@ 	c #3B3B3B",
"# 	c #250D0C",
"$ 	c #BE2E26",
"% 	c #CF332A",
"& 	c #3C0705",
"* 	c #505050",
"= 	c #2C2C2C",
"- 	c #010101",
"; 	c #303030",
"> 	c #B4B4B4",
", 	c #B3B3B3",
"' 	c #5A0F0A",
") 	c #F03C33",
"! 	c #A1261F",
"~ 	c #6A6D6D",
"{ 	c #E2E2E2",
"] 	c #BCBCBC",
"^ 	c #0B1212",
"/ 	c #280403",
"( 	c #454545",
"_ 	c #D6D6D6",
": 	c #ABABAB",
"< 	c #751711",
"[ 	c #E1392F",
"} 	c #461412",
"| 	c #B2B2B2",
"1 	c #D8D8D8",
"2 	c #5F5E5E",
"3 	c #721812",
"4 	c #721813",
"5 	c #240302",
"6 	c #BB2D25",
"7 	c #4E0F0D",
"8 	c #A4A4A4",
"9 	c #180000",
"0 	c #000202",
"a 	c #484848",
"b 	c #696969",
"c 	c #7E150D",
"d 	c #E93B31",
"e 	c #E5392F",
"f 	c #4A0C09",
"g 	c #300504",
"h 	c #D0332A",
"i 	c #C12F27",
"j 	c #302626",
"k 	c #1F1F1F",
"l 	c #94221C",
"m 	c #D2342B",
"n 	c #65130F",
"o 	c #2C2727",
"p 	c #050505",
"q 	c #171717",
"r 	c #821B15",
"s 	c #DF382F",
"t 	c #5D110D",
"u 	c #040000",
"v 	c #3B2120",
"w 	c #9F9F9F",
"x 	c #B8B8B8",
"y 	c #333333",
"z 	c #626262",
"A 	c #4B0400",
"B 	c #2C0503",
"C 	c #8F8F8F",
"D 	c #E4E4E4",
"E 	c #D1D1D1",
"F 	c #3F3F3F",
"G 	c #B1B1B1",
"H 	c #DBDBDB",
"I 	c #919191",
"J 	c #787878",
"K 	c #808080",
"L 	c #585757",
"M 	c #141414",
"N 	c #323232",
"O 	c #4C4C4C",
"P 	c #1B0000",
"Q 	c #861C16",
"R 	c #B92D25",
"S 	c #3D0806",
"T 	c #8C1F19",
"U 	c #EA3B31",
"V 	c #E53930",
"W 	c #4A0C08",
"X 	c #861E18",
"Y 	c #A8261F",
"Z 	c #760700",
"` 	c #1F0000",
" .	c #201312",
"..	c #616060",
"+.	c #A8A8A8",
"@.	c #383838",
"#.	c #7B7B7B",
"$.	c #E1E1E1",
"%.	c #361D00",
"&.	c #452500",
"*.	c #190A00",
"=.	c #ABACAC",
"-.	c #393939",
";.	c #0E0400",
">.	c #311900",
",.	c #050200",
"'.	c #010000",
").	c #814A00",
"!.	c #DE8500",
"~.	c #E58900",
"{.	c #D68000",
"].	c #8A5000",
"^.	c #030100",
"/.	c #2B1100",
"(.	c #894D00",
"_.	c #713F00",
":.	c #0A0200",
"<.	c #1F0E00",
"[.	c #985A00",
"}.	c #D57F00",
"|.	c #DF8500",
"1.	c #C47500",
"2.	c #3A1F00",
"3.	c #090300",
"4.	c #B86E00",
"5.	c #E68A00",
"6.	c #F69400",
"7.	c #DC8300",
"8.	c #A96300",
"9.	c #2D1700",
"0.	c #DA8300",
"a.	c #FA9600",
"b.	c #B16900",
"c.	c #CE7B00",
"d.	c #ED8E00",
"e.	c #E18600",
"f.	c #F99600",
"g.	c #D88100",
"h.	c #864E00",
"i.	c #371D00",
"j.	c #C57500",
"k.	c #F09000",
"l.	c #7E4A00",
"m.	c #EF8F00",
"n.	c #AE6700",
"o.	c #905500",
"p.	c #FB9600",
"q.	c #F29100",
"r.	c #3D2000",
"s.	c #E48900",
"t.	c #D17C00",
"u.	c #9C5C00",
"v.	c #F99500",
"w.	c #8E5300",
"x.	c #281400",
"y.	c #0F0500",
"z.	c #EB8D00",
"A.	c #F79500",
"B.	c #FC9700",
"C.	c #B76D00",
"D.	c #804A00",
"E.	c #FB9700",
"F.	c #EE8F00",
"G.	c #2B1500",
"H.	c #E88B00",
"I.	c #FD9800",
"J.	c #F69300",
"K.	c #F79400",
"L.	c #C37400",
"M.	c #7A4600",
"N.	c #533412",
"O.	c #523616",
"P.	c #5A3407",
"Q.	c #AC6600",
"R.	c #AA6400",
"S.	c #050100",
"T.	c #BE7100",
"U.	c #F49200",
"V.	c #895000",
"W.	c #CF7B00",
"X.	c #945600",
"Y.	c #56340E",
"Z.	c #553817",
"`.	c #60390A",
" +	c #774500",
".+	c #4A3F2C",
"++	c #CCAF7E",
"@+	c #D9BA86",
"#+	c #B49A6F",
"$+	c #222016",
"%+	c #512400",
"&+	c #370D00",
"*+	c #5B4E37",
"=+	c #CAAD7C",
"-+	c #DABC87",
";+	c #AE956A",
">+	c #18150E",
",+	c #0C0904",
"'+	c #6D5D41",
")+	c #8A7553",
"!+	c #3C3222",
"~+	c #070502",
"{+	c #CACACA",
"]+	c #444444",
"^+	c #17120A",
"/+	c #5B4D35",
"(+	c #8F7B57",
"_+	c #4B3F2B",
":+	c #040301",
"<+	c #929292",
"[+	c #BEBEBE",
"}+	c #292929",
"|+	c #1F2121",
"1+	c #4D1513",
"2+	c #761914",
"3+	c #6B1511",
"4+	c #DA362D",
"5+	c #E63930",
"6+	c #4B0C08",
"7+	c #99231C",
"8+	c #D5352C",
"9+	c #B62B23",
"0+	c #360604",
"a+	c #3A0806",
"b+	c #432525",
"c+	c #4D4E4E",
"d+	c #1A1A1A",
"e+	c #585858",
"f+	c #C7C7C7",
"g+	c #E0E0E0",
"h+	c #959595",
"i+	c #E6E6E6",
"j+	c #DFDFDF",
"k+	c #909090",
"l+	c #E7E7E7",
"m+	c #DDDDDD",
"n+	c #C5C5C5",
"o+	c #202020",
"                    . . . . .                                   ",
"                + @ # $ % & * = -                               ",
"            . ; > , ' ) ! ~ { ] ^ .                             ",
"            / ( _ : < [ } | 1 2 3 4 .                           ",
"          5 6 7 | 8 9 . 0 a b c d e f                           ",
"          g h i j k .       . l m n o p                         ",
"        . q r s t .           u v w x y                         ",
"        . : z A B             . C D E F                         ",
"        . G H I .             . J K L M                         ",
"          N C O .             . P Q R S                         ",
"            .                 . T U V W                         ",
"                              . X Y Z `                         ",
"                              .  ...+.@.                        ",
"                              . #.$.$.a                         ",
"                  . %.&.*..   . #.: =.-.    . ;.>.,.            ",
"                '.).!.~.{.].^.. /.(._.:.. <.[.}.|.1.2.          ",
"                3.4.5.6.7.6.8.9.0.a.a.b.. c.d.e.f.g.h..         ",
"                '.i.j.k.l.m.n.o.p.a.a.q.r.s.t.u.v.w.x..         ",
"                y.z.m.z.A.B.C.D.E.a.a.F.G.H.I.J.d.K.L..         ",
"                ,.M.N.O.P.Q.R.S.T.U.m.V.. W.X.Y.Z.`. +.         ",
"                . .+++@+#+$+. '.. %+&+. . . *+=+-+;+>+          ",
"                  ,+'+)+!+~+  . C {+{+]+  . ^+/+(+_+:+          ",
"                      .       . <+[+I }+        .               ",
"                              . |+1+2+5                         ",
"                              . 3+4+5+6+                        ",
"                              . 7+8+9+0+                        ",
"                              . a+b+c+d+                        ",
"                              . e+f+g+a                         ",
"                              . h+i+j+a                         ",
"                              . k+l+m+(                         ",
"                                * n++.o+                        ",
"                                . . .                           "};
