/* XPM */
static const char * player_xpm[] = {
"40 38 389 2",
"  	c None",
". 	c #C49696",
"+ 	c #BD8989",
"@ 	c #C89D9D",
"# 	c #DCC3C3",
"$ 	c #CCA7A7",
"% 	c #C09090",
"& 	c #C89E9E",
"* 	c #D4B1B1",
"= 	c #D0A9A9",
"- 	c #CFA8A8",
"; 	c #CFA7A7",
"> 	c #D4B0B0",
", 	c #CBA2A2",
"' 	c #BE8989",
") 	c #D0AEAE",
"! 	c #D9BEBE",
"~ 	c #C39292",
"{ 	c #FBF3F3",
"] 	c #F7F1F1",
"^ 	c #C79E9E",
"/ 	c #C99F9F",
"( 	c #E2C6C6",
"_ 	c #F3E1E1",
": 	c #FEF0F0",
"< 	c #FFEEEE",
"[ 	c #FFF3F3",
"} 	c #FFF0F0",
"| 	c #FEF1F1",
"1 	c #F4E3E3",
"2 	c #E2C7C7",
"3 	c #C49595",
"4 	c #CDA9A9",
"5 	c #F8F4F4",
"6 	c #F7F0F0",
"7 	c #C08F8F",
"8 	c #CBA0A0",
"9 	c #FFF5F5",
"0 	c #FFFAFA",
"a 	c #F8ECEC",
"b 	c #BB8282",
"c 	c #F6E6E6",
"d 	c #FFEDED",
"e 	c #FFE8E8",
"f 	c #FFE3E3",
"g 	c #FFE1E1",
"h 	c #FFECEC",
"i 	c #FFEAEA",
"j 	c #FFE5E5",
"k 	c #FFE6E6",
"l 	c #FFEFEF",
"m 	c #F8E8E8",
"n 	c #D6B5B5",
"o 	c #BB8181",
"p 	c #F7EAEA",
"q 	c #FFF6F6",
"r 	c #D1ACAC",
"s 	c #CFA6A6",
"t 	c #FFF4F4",
"u 	c #F6E5E5",
"v 	c #CEA6A6",
"w 	c #F0DCDC",
"x 	c #FFF2F2",
"y 	c #FFE7E7",
"z 	c #F2DFDF",
"A 	c #F4E2E2",
"B 	c #D3AEAE",
"C 	c #C18D8D",
"D 	c #F5E4E4",
"E 	c #F9E5E5",
"F 	c #FFE4E4",
"G 	c #FBECEC",
"H 	c #F1DEDE",
"I 	c #C39595",
"J 	c #CEA8A8",
"K 	c #C28F8F",
"L 	c #F8E1E1",
"M 	c #F9EAEA",
"N 	c #EDCECE",
"O 	c #FFE9E9",
"P 	c #C08E8E",
"Q 	c #D3A6A6",
"R 	c #D7B6B6",
"S 	c #C39393",
"T 	c #F2D0D0",
"U 	c #FFE0E0",
"V 	c #F9D9D9",
"W 	c #FAD9D9",
"X 	c #FEE0E0",
"Y 	c #F5E3E3",
"Z 	c #CA9999",
"` 	c #EDC9C9",
" .	c #BC8181",
"..	c #B27171",
"+.	c #BE8585",
"@.	c #F0CECE",
"#.	c #F6D5D5",
"$.	c #C48E8E",
"%.	c #B87B7B",
"&.	c #E5BEBE",
"*.	c #D1ABAB",
"=.	c #E1B8B8",
"-.	c #FADBDB",
";.	c #B67777",
">.	c #AF6B6B",
",.	c #B57979",
"'.	c #CFADAD",
").	c #C39090",
"!.	c #FDDEDE",
"~.	c #C79494",
"{.	c #CEACAC",
"].	c #BA8484",
"^.	c #B16F6F",
"/.	c #F3D0D0",
"(.	c #E4CACA",
"_.	c #C29191",
":.	c #F1CECE",
"<.	c #E9C4C4",
"[.	c #DDC7C7",
"}.	c #FFFFFF",
"|.	c #E2CFCF",
"1.	c #F7D7D7",
"2.	c #FADADA",
"3.	c #D6B7B7",
"4.	c #EBDDDD",
"5.	c #AF6A6A",
"6.	c #E2BABA",
"7.	c #F4DDDD",
"8.	c #C69A9A",
"9.	c #C69898",
"0.	c #F5D2D2",
"a.	c #B16E6E",
"b.	c #C29494",
"c.	c #F0E6E6",
"d.	c #CBA4A4",
"e.	c #FCDDDD",
"f.	c #C89898",
"g.	c #EEE4E4",
"h.	c #CEABAB",
"i.	c #AF6C6C",
"j.	c #ECC7C7",
"k.	c #FDE6E6",
"l.	c #BC8585",
"m.	c #C18A8A",
"n.	c #DCB1B1",
"o.	c #B26F6F",
"p.	c #E0B7B7",
"q.	c #EAC5C5",
"r.	c #B47373",
"s.	c #D2A3A3",
"t.	c #CDA5A5",
"u.	c #C38F8F",
"v.	c #F4D3D3",
"w.	c #E6BFBF",
"x.	c #E6C0C0",
"y.	c #F2CFCF",
"z.	c #D6B3B3",
"A.	c #CA9D9D",
"B.	c #EAC4C4",
"C.	c #EBC6C6",
"D.	c #D8B5B5",
"E.	c #CB9D9D",
"F.	c #F5D5D5",
"G.	c #BE8383",
"H.	c #C99696",
"I.	c #F7D6D6",
"J.	c #DBAFAF",
"K.	c #D7AAAA",
"L.	c #F8D7D7",
"M.	c #DAAEAE",
"N.	c #C69090",
"O.	c #D9B2B2",
"P.	c #EFCDCD",
"Q.	c #E7C1C1",
"R.	c #ECC8C8",
"S.	c #D8ACAC",
"T.	c #D5A6A6",
"U.	c #D5A7A7",
"V.	c #DDB3B3",
"W.	c #D9B0B0",
"X.	c #C79595",
"Y.	c #EBC7C7",
"Z.	c #EDC8C8",
"`.	c #FDDFDF",
" +	c #D8AEAE",
".+	c #C08888",
"++	c #E8C5C5",
"@+	c #FBDCDC",
"#+	c #BF8E93",
"$+	c #CEA0A3",
"%+	c #D2A7A7",
"&+	c #BF8888",
"*+	c #E8C4C4",
"=+	c #F8D8D8",
"-+	c #C28D8D",
";+	c #DCB2B2",
">+	c #F9DADA",
",+	c #BE8B90",
"'+	c #CAB3C5",
")+	c #C3A1AF",
"!+	c #DAB0AF",
"~+	c #FFE2E2",
"{+	c #C89B9B",
"]+	c #E7C2C2",
"^+	c #C9A2A2",
"/+	c #EBDEDE",
"(+	c #D9C0C1",
"_+	c #BE96A0",
":+	c #C49FAA",
"<+	c #BB8183",
"[+	c #EDE2E2",
"}+	c #EDE1E1",
"|+	c #BC8383",
"1+	c #C08989",
"2+	c #D2A4A4",
"3+	c #F3D1D1",
"4+	c #D4A7A8",
"5+	c #BD9CAB",
"6+	c #FDFBFB",
"7+	c #C39BA2",
"8+	c #D1C5DB",
"9+	c #D0AFB0",
"0+	c #FAF7F7",
"a+	c #E1CECE",
"b+	c #EECACA",
"c+	c #D8ABAB",
"d+	c #D0A5A5",
"e+	c #C99999",
"f+	c #CE9C9C",
"g+	c #FEDFDF",
"h+	c #D1A4A4",
"i+	c #CBC6E1",
"j+	c #C5A5B3",
"k+	c #D1B2B3",
"l+	c #CCA9A9",
"m+	c #B27476",
"n+	c #BC8E96",
"o+	c #C4A3B0",
"p+	c #CFADAF",
"q+	c #FAF6F6",
"r+	c #E5D3D3",
"s+	c #CD9B9B",
"t+	c #D9AEAE",
"u+	c #D8ADAD",
"v+	c #E4BDBD",
"w+	c #D6AAAA",
"x+	c #C0B7D0",
"y+	c #D8D6F0",
"z+	c #D6CFE8",
"A+	c #CFC1D7",
"B+	c #C79E9F",
"C+	c #C59DA2",
"D+	c #D8D4EE",
"E+	c #D3C9E1",
"F+	c #CFAEB0",
"G+	c #D8BABA",
"H+	c #F4D2D2",
"I+	c #C08C8C",
"J+	c #E5C0C0",
"K+	c #E9C6C6",
"L+	c #E0B6B6",
"M+	c #C28A8A",
"N+	c #D6B9B9",
"O+	c #B7919F",
"P+	c #C7C0DA",
"Q+	c #D0C2D8",
"R+	c #C39CA3",
"S+	c #F4EDED",
"T+	c #DDC9C9",
"U+	c #D5CDE5",
"V+	c #D8D6F1",
"W+	c #BFA0B0",
"X+	c #C99797",
"Y+	c #CF9E9E",
"Z+	c #DEB3B3",
"`+	c #CE9F9F",
" @	c #EECBCB",
".@	c #E7C0C0",
"+@	c #D1A2A2",
"@@	c #CE9E9E",
"#@	c #D2B1B1",
"$@	c #C59191",
"%@	c #E5CBCB",
"&@	c #FAF3F3",
"*@	c #FFFEFE",
"=@	c #D6BABB",
"-@	c #CEC7E1",
";@	c #C4C2DE",
">@	c #B994A1",
",@	c #FCDCDC",
"'@	c #D7ABAB",
")@	c #D09F9F",
"!@	c #DFB6B6",
"~@	c #E4BEBE",
"{@	c #F1CFCF",
"]@	c #CEA5A5",
"^@	c #E1CDCD",
"/@	c #C89C9C",
"(@	c #CD9C9C",
"_@	c #D5A8A8",
":@	c #DBB1B1",
"<@	c #D5B2B2",
"[@	c #B9909A",
"}@	c #BBABC3",
"|@	c #BC919A",
"1@	c #EDCACA",
"2@	c #D6A9A9",
"3@	c #D1A0A0",
"4@	c #FBDBDB",
"5@	c #C79999",
"6@	c #D1A3A3",
"7@	c #D0A1A1",
"8@	c #E0CACA",
"9@	c #CDA4A4",
"0@	c #E2B9B9",
"a@	c #DEB4B4",
"b@	c #D7ACAC",
"c@	c #C08A8A",
"d@	c #E6C1C1",
"e@	c #E9C5C5",
"f@	c #ECC9C9",
"g@	c #EBC8C8",
"h@	c #F6D6D6",
"i@	c #EAC7C7",
"j@	c #EECCCC",
"k@	c #E8C3C3",
"l@	c #C59696",
"m@	c #F3D2D2",
"n@	c #FCDEDE",
"o@	c #F0CDCD",
"p@	c #C39191",
"q@	c #E7C3C3",
"r@	c #DBB2B2",
"s@	c #C59090",
"t@	c #C48F8F",
"u@	c #DDB4B4",
"v@	c #F5D4D4",
"w@	c #DEB5B5",
"x@	c #C49090",
"y@	c #EDCBCB",
"z@	c #C79797",
"A@	c #C49393",
"B@	c #E6C2C2",
"C@	c #C18787",
"D@	c #C58B8B",
"E@	c #CD9595",
"F@	c #D29B9B",
"G@	c #C48989",
"H@	c #E5BFBF",
"I@	c #C79292",
"J@	c #C38888",
"K@	c #C68C8C",
"L@	c #C08686",
"M@	c #D0A2A2",
"N@	c #C18C8C",
"O@	c #C69494",
"P@	c #D6ABAB",
"Q@	c #D4A8A8",
"R@	c #C89696",
"S@	c #CAA1A1",
"T@	c #D09898",
"U@	c #D39C9C",
"V@	c #CB9191",
"W@	c #B97E7E",
"X@	c #D9AFAF",
"Y@	c #BC8282",
"Z@	c #C78C8C",
"`@	c #D29A9A",
" #	c #C18686",
".#	c #CEAAAA",
"+#	c #D4A7A7",
"@#	c #C59797",
"##	c #C18585",
"$#	c #CA9090",
"%#	c #CD9494",
"&#	c #C98F8F",
"*#	c #C08585",
"=#	c #C59595",
"-#	c #CFA0A0",
";#	c #DCB3B3",
">#	c #C79696",
",#	c #C69C9C",
"'#	c #C59999",
")#	c #C78D8D",
"!#	c #CB9292",
"~#	c #BD8383",
"{#	c #CAA4A4",
"]#	c #CDA8A8",
"^#	c #CDAAAA",
"              .                                               + @               ",
"              # $             % & * = - ; = > , '             ) !               ",
"            ~ { ] ^     / - ( _ : < < [ [ [ } | 1 2 = 3     4 5 6 7             ",
"            8 9 0 a b * c d e f g g g e h i j e k i l m n o p 0 q r             ",
"            s t u v w h f g g g g g g g g g d x y g g k l z v A [ B             ",
"            C D s E F g g g g g g g g g g g g g g g g g g i G ; H I             ",
"            J K L g g g g g g g g g g g g g g g g g g g g g e M C               ",
"            3 N g g g g g g g g g g g g g g g g g g g g g g g O H P             ",
"            Q g g g g g g g g g g g g g g g g g g g g g g g g g d R             ",
"          S T g g g g g g g U V g g g g g g g g W X g g g g g g F Y +           ",
"          Z g g g g g g g `  ...+.@.g g g g #.$...%.&.g g g g g g h *.          ",
"          =.g g g g g g -.;.>.,.'.).!.g g X ~.{.].>.^./.g g g g g F (.          ",
"        _.:.g g g g g g <.>.>.[.}.|.1.g g 2.3.}.4.5.>.6.g g g g g g 7.8.        ",
"        9.V g g g g g g 0.a.>.b.c.d.e.g g !.f.g.h.>.i.j.g g g g g g k.l.        ",
"        m.!.g g g g g g g n.a.>.o.p.g g g g q.r.5.>.s.X g g g g g g k t.        ",
"        u.e.g g g g g g g U v.w.#.g g g g g g V x.y.X g g g g g g g f z.        ",
"        A.2.g g g g g g g g g B.g g g g g g g g C.g g g g g g g g g g D.        ",
"        E.F.g g g g g g g g !.G.H.6.I.J.K.L.L.M.N.g g g g g g g g g g O.        ",
"        E.P.g g g g g g g g Q.R.X R.S.T v.T.U.v.V.C.g g g g g g g g g W.        ",
"        X.Y.g g g g g g g g g g g g g g g g Z.`.X e.g g g g g g g g g  +        ",
"        .+++@+g g g g g g g g V X g g g g R.#+$+!.g g g g g g g g g g %+        ",
"        &+*+=+g g g g g g g e.-+;+T s.>+2.,+'+)+!+g g g g g g g g g ~+{+        ",
"        &+*+F.g g g g @+g g ]+^+/+(+_+:+<+{.[+}+@ @+g g e.g g g g g ~+|+        ",
"        1+*+v.g g g g 2+3+g 4+5+[+6+7+8+9+0+}.}.a+b+g :.c+g g g g g ~+d+        ",
"        e+*+#.g g g g 2.f+g+h+i+j+k+l+m+n+o+p+q+r+Y.!.s+@+g g g g g g t+        ",
"        u+*+V g g g g g x.v+w+x+y+z+A+B+C+D+E+F+G+H+p.C.g g g g g g g R.8.      ",
"      I+J+K+g+g `.L+X g X M+N+O+P+Q+R+S+T+U+V+W+X+X Y+X g X Z+g g g g e.9.      ",
"      `+*+ @g g g .@+@e.g @@#@$@{+%@&@*@=@-@;@>@:.,@'@g ,@)@q.g g g g g !@      ",
"    K ~@*+{@g g q.]@^@/@(@_@1.g+:@<@c D [@}@|@1@g U 2@@@3@3+g g g g g g 4@5@    ",
"    6@*+*+1@g g 7@8@9@0@V g g g g v.a@S.b@&.4@g g g g e.g g g g g g g g g v+    ",
"  c@d@*+*+*+T g+L.R.,@X !.`.U g g g g g g g g g g g g X X g g g g g g g g !.X.  ",
"  _@*+*+*+*+*+e@f@1@g@e@*+*+g@h@g g g g g g g g X F.1@i@Y.j@h@X g g g g g g k@  ",
"l@d@*+*+*+*+*+*+*+*+*+*+*+*+*+*+P.`.g g g g g 1.g@*+*+*+*+*+*+i@m@n@g g g U o@p@",
"-+*+*+*+*+*+*+q@r@`+s@t@@@u@*+*+*+i@v@@+@+#.1@*+*+*+w@@@x@s@`+:@q@e@y@{@{@f@*+z@",
"A@B@*+*+*+J+2+C@D@E@F@F@E@G@s@v+*+*+*+*+*+*+*+*+H@I@J@E@F@F@E@K@L@M@~@*+*+*+]+N@",
"  O@P@Q@R@A@S@m.T@U@U@U@U@U@V@W@u+q@*+*+*+*+k@X@Y@Z@U@U@U@U@U@`@ #.#l@R@+#P@X.  ",
"                @###$#%#&#*#=#    f.-#;+;#7@>#,#  '#*#)#%#!#J@~#                ",
"                    {#d.              ]#^#              d..#                    "};
