/* XPM */
static const char *speed_candy_xpm[] = {
/* columns rows colors chars-per-pixel */
"30 30 245 2 ",
"   c None",
".  c #46933F",
"X  c #57A03F",
"o  c #58A23F",
"O  c #5DA43E",
"+  c #5CA63F",
"@  c #5DA63F",
"#  c #469340",
"$  c #4B9B42",
"%  c #4C9940",
"&  c #4C9F43",
"*  c #4CA246",
"=  c #4DA346",
"-  c #4EA446",
";  c #53A041",
":  c #50A444",
">  c #51A444",
",  c #53A544",
"<  c #5FA740",
"1  c #53A846",
"2  c #5DA840",
"3  c #5DA940",
"4  c #5EA840",
"5  c #5EAB41",
"6  c #58AD46",
"7  c #5BB046",
"8  c #5CB146",
"9  c #60AB41",
"0  c #62A943",
"q  c #60AF42",
"w  c #60AF43",
"e  c #65AA45",
"r  c #67AA46",
"t  c #68AB47",
"y  c #63B042",
"u  c #63B345",
"i  c #63B444",
"p  c #60B446",
"a  c #63B546",
"s  c #64B545",
"d  c #65B746",
"f  c #68B646",
"g  c #68B746",
"h  c #6AB747",
"j  c #66B945",
"k  c #65B847",
"l  c #65B947",
"z  c #66B846",
"x  c #67B846",
"c  c #66B946",
"v  c #67B946",
"b  c #66B947",
"n  c #66BA46",
"m  c #67BA46",
"M  c #66BA47",
"N  c #67BA47",
"B  c #68B846",
"V  c #68BA47",
"C  c #68BB48",
"Z  c #69BB48",
"A  c #68BB49",
"S  c #69BB49",
"D  c #6ABB49",
"F  c #6BBB49",
"G  c #6ABA4A",
"H  c #6CBB4A",
"J  c #6ABC4B",
"K  c #6BBC4C",
"L  c #6CBC4D",
"P  c #6DBD4D",
"I  c #6FBC4D",
"U  c #6DBD4F",
"Y  c #6EBD4F",
"T  c #74B24E",
"R  c #79AE51",
"E  c #7BAF52",
"W  c #6FBE50",
"Q  c #6FBE51",
"!  c #78B250",
"~  c #70BE52",
"^  c #70BF52",
"/  c #71BF53",
"(  c #75BE52",
")  c #72BF54",
"_  c #7ABD52",
"`  c #7ABE52",
"'  c #7BBE53",
"]  c #7CBF53",
"[  c #79BF54",
"{  c #7EBF54",
"}  c #78C057",
"|  c #7CC057",
" . c #75C058",
".. c #75C158",
"X. c #75C059",
"o. c #75C159",
"O. c #76C159",
"+. c #77C25B",
"@. c #79C25B",
"#. c #78C25C",
"$. c #78C35D",
"%. c #7BC25C",
"&. c #7BC35F",
"*. c #7CC262",
"=. c #7BC461",
"-. c #7CC461",
";. c #7DC461",
":. c #7DC462",
">. c #7DC562",
",. c #7EC563",
"<. c #7FC563",
"1. c #8CBA5C",
"2. c #94B15F",
"3. c #98B563",
"4. c #A5B76B",
"5. c #ABB96E",
"6. c #C0BB79",
"7. c #81C056",
"8. c #82C25B",
"9. c #8FC05C",
"0. c #8FC35E",
"q. c #90C15D",
"w. c #80C665",
"e. c #80C666",
"r. c #81C667",
"t. c #82C768",
"y. c #85C86B",
"u. c #86C86C",
"i. c #8AC86A",
"p. c #89C96E",
"a. c #8DC96F",
"s. c #8ECC77",
"d. c #8FCC78",
"f. c #9DC970",
"g. c #92CD7A",
"h. c #A0C367",
"j. c #A4C76B",
"k. c #A5C86E",
"l. c #AAC86E",
"z. c #ADC971",
"x. c #AECD7A",
"c. c #A8CF7F",
"v. c #B3CA74",
"b. c #B4CA74",
"n. c #B9CB77",
"m. c #B3CE7D",
"M. c #B5CF7F",
"N. c #BCCC79",
"B. c #BDCC7A",
"V. c #BFCD7B",
"C. c #BFCE7D",
"Z. c #C7CB7E",
"A. c #C2CD7D",
"S. c #A6D185",
"D. c #ACD287",
"F. c #B7D083",
"G. c #BFD48C",
"H. c #BDD693",
"J. c #C7CE80",
"K. c #CACF81",
"L. c #D4C785",
"P. c #D2CE86",
"I. c #D9C388",
"U. c #D8C289",
"Y. c #C5D083",
"T. c #C1D185",
"R. c #CDD083",
"E. c #CFD085",
"W. c #C3D288",
"Q. c #C6D38A",
"!. c #D7D188",
"~. c #D8D28A",
"^. c #D4D693",
"/. c #DDD592",
"(. c #D7D99A",
"). c #DEDA9F",
"_. c #E1C38E",
"`. c #E3C38F",
"'. c #E1C48E",
"]. c #E0D38F",
"[. c #E2D28E",
"{. c #E0D48E",
"}. c #E3C590",
"|. c #E4C590",
" X c #E5C590",
".X c #E6C590",
"XX c #E6C691",
"oX c #E7C691",
"OX c #EBCD94",
"+X c #EECD96",
"@X c #F0CE97",
"#X c #F0CF98",
"$X c #E1D797",
"%X c #E7D694",
"&X c #E6D797",
"*X c #E5D99A",
"=X c #E6D99B",
"-X c #EBDA9E",
";X c #ECDA9F",
":X c #F3D598",
">X c #F2D799",
",X c #F8D69C",
"<X c #F5D89C",
"1X c #F9D99D",
"2X c #FAD89D",
"3X c #FBD89D",
"4X c #F9D99E",
"5X c #FBD89E",
"6X c #FCD89F",
"7X c #FCD99F",
"8X c #FCDA9F",
"9X c #D8DCA3",
"0X c #EEDBA0",
"qX c #F9DAA0",
"wX c #FBDBA1",
"eX c #FEDAA0",
"rX c #FEDAA1",
"tX c #FDDBA2",
"yX c #FEDBA2",
"uX c #FEDBA3",
"iX c #F9DDA6",
"pX c #FDDCA5",
"aX c #FEDCA5",
"sX c #FDDCA6",
"dX c #FEDCA6",
"fX c #FEDDA7",
"gX c #F6DFAC",
"hX c #FEDDA8",
"jX c #FDDEA9",
"kX c #FEDEA8",
"lX c #FEDEA9",
"zX c #FEDEAA",
"xX c #FEDFAB",
"cX c #FEDFAC",
"vX c #F8E0AE",
"bX c #F8E0AF",
"nX c #FCE0AD",
"mX c #FDE0AF",
"MX c #FEE0AF",
"NX c #F8E1B2",
"BX c #FEE1B0",
"VX c #FEE1B1",
"CX c #FEE1B2",
"ZX c #FEE1B3",
"AX c #FEE4B9",
/* pixels */
"                                                            ",
"              $. .U                                         ",
"            >.Z j M                                         ",
"        e.e.U c c M M                                       ",
"    =. .U G V V V c c                                       ",
"    ..G c c c 6 p 8 c                                       ",
"    G c M C c * > $ y V q.[.3X3X3X                          ",
"      c M M = * % p F C.fXfXkXkX%Xz.' h                     ",
"          c d ; V ' $XkXcXkX=Xf.....( j.!.                  ",
"            9 d | -XkXkXMXG.u.t.i.Q.iXuXrXrX                ",
"            h U *XkXBXbXD.d.d.H.NXBXcXfX<XA.0.              ",
"            c Y.kXMXbXS.s.g.9XAXAXBXgXM.( G c               ",
"            0.uXkXcXc.u.u.9XBXBXZX(.s.&...U V               ",
"          h {.fXkXW.>.*.^.kXkXkXF.<.w.@.&.x.%X,X            ",
"          h.rXrX0X&...M.kXuXuXj.K ....f.-XkXyX>X            ",
"          L.rXrXk.W 8.qXuXrXb.N N U T.kXkXkXwXZ.            ",
"          oX6X>XH c R.6XyX~.V V C R.yXfXnX{.7.V             ",
"          .X+XA.c ' 3XyX1X| m m Z.6X8XyXN.C V               ",
"          oX`.1.V b.rXrXN.c C l.8X8X8Xl.V c d               ",
"            `.r w {.6XqX' V | 1X8XyXN.C c d 3               ",
"            I.3 r .X#XP.M C E.8XrX~.G d w 3 < c             ",
"              + ! .X.X3.+ ! +X#XOXT 3 3 < X > d C c         ",
"                2..X.XE + 5.oX|.4.+ 3 3 o . 1 8 Z c c       ",
"                    `.9 5 I.`.`.t 3 @ @ # > = V c c c &.    ",
"                          }.`.6.@     p 6 8 p C c M  .&.    ",
"                                      V C c c c  .>.        ",
"                                        M C c G >.          ",
"                                        M M c W             ",
"                                          Z  .>.            ",
"                                                            "
};
